<?xml version="1.0" encoding="UTF-8" standalone="no"?>
<svg
   xmlns:dc="http://purl.org/dc/elements/1.1/"
   xmlns:cc="http://creativecommons.org/ns#"
   xmlns:rdf="http://www.w3.org/1999/02/22-rdf-syntax-ns#"
   xmlns:svg="http://www.w3.org/2000/svg"
   xmlns="http://www.w3.org/2000/svg"
   xmlns:sodipodi="http://sodipodi.sourceforge.net/DTD/sodipodi-0.dtd"
   xmlns:inkscape="http://www.inkscape.org/namespaces/inkscape"
   version="1.1"
   id="Layer_1"
   x="0px"
   y="0px"
   viewBox="0 0 186.2 200"
   xml:space="preserve"
   sodipodi:docname="logo.svg"
   inkscape:version="0.92.3 (unknown)"
   width="186.2"
   height="200"><metadata
   id="metadata904"><rdf:RDF><cc:Work
       rdf:about=""><dc:format>image/svg+xml</dc:format><dc:type
         rdf:resource="http://purl.org/dc/dcmitype/StillImage" /><dc:title></dc:title></cc:Work></rdf:RDF></metadata><defs
   id="defs902" /><sodipodi:namedview
   pagecolor="#ffffff"
   bordercolor="#666666"
   borderopacity="1"
   objecttolerance="10"
   gridtolerance="10"
   guidetolerance="10"
   inkscape:pageopacity="0"
   inkscape:pageshadow="2"
   inkscape:window-width="1920"
   inkscape:window-height="1031"
   id="namedview900"
   showgrid="false"
   inkscape:zoom="1.696"
   inkscape:cx="-84.92221"
   inkscape:cy="89.181359"
   inkscape:window-x="0"
   inkscape:window-y="25"
   inkscape:window-maximized="1"
   inkscape:current-layer="g897"
   fit-margin-top="0"
   fit-margin-left="0"
   fit-margin-right="0"
   fit-margin-bottom="0" />
<style
   type="text/css"
   id="style889">
	.st0{fill:#DD0031;}
	.st1{fill:#C3002F;}
	.st2{fill:#FFFFFF;}
</style>
<g
   id="g897"
   transform="translate(-31.9,-30)">
	<polygon
   class="st0"
   points="31.9,63.2 46.1,186.3 125,230 125,230 125,230 203.9,186.3 218.1,63.2 125,30 "
   id="polygon891"
   style="fill:#dd0031" />
	<polygon
   class="st1"
   points="125,153.4 125,153.4 125,230 125,230 203.9,186.3 218.1,63.2 125,30 125,52.2 125,52.1 "
   id="polygon893"
   style="fill:#c3002f" />
	
<path
   style="fill:#766450;fill-opacity:0.96932511;stroke:#000000;stroke-width:9.63779545;stroke-miterlimit:4;stroke-dasharray:none;stroke-opacity:0.73006137"
   d="m 125.16274,71.520171 -6.53769,16.877149 a 38.982595,38.273823 0 0 0 -18.9208,8.752343 L 83.01138,92.154253 91.526321,106.752 a 38.982595,38.273823 0 0 0 -5.41709,19.38233 38.982595,38.273823 0 0 0 0.09297,2.58155 l -13.339355,9.26035 16.040429,2.34579 a 38.982595,38.273823 0 0 0 14.556245,17.62921 l -1.09902,16.52851 12.29512,-11.50986 a 38.982595,38.273823 0 0 0 10.43574,1.43769 38.982595,38.273823 0 0 0 11.55801,-1.76309 l 12.64208,11.53311 -1.358,-17.08798 a 38.982595,38.273823 0 0 0 13.45225,-17.09463 l 16.93027,-2.69776 -14.31885,-9.66875 a 38.982595,38.273823 0 0 0 0.0764,-1.49414 38.982595,38.273823 0 0 0 -5.24112,-19.0752 l 8.74571,-15.449408 -17.21582,5.395508 a 38.982595,38.273823 0 0 0 -18.36963,-8.506641 z"
   id="path920"
   inkscape:connector-curvature="0" /></g>
</svg>