<?xml version="1.0" encoding="UTF-8" standalone="no"?>
<!-- Generator: Adobe Illustrator 19.1.0, SVG Export Plug-In . SVG Version: 6.00 Build 0)  -->

<svg
   xmlns:dc="http://purl.org/dc/elements/1.1/"
   xmlns:cc="http://creativecommons.org/ns#"
   xmlns:rdf="http://www.w3.org/1999/02/22-rdf-syntax-ns#"
   xmlns:svg="http://www.w3.org/2000/svg"
   xmlns="http://www.w3.org/2000/svg"
   xmlns:sodipodi="http://sodipodi.sourceforge.net/DTD/sodipodi-0.dtd"
   xmlns:inkscape="http://www.inkscape.org/namespaces/inkscape"
   version="1.1"
   id="Layer_1"
   x="0px"
   y="0px"
   viewBox="0 0 250 250"
   style="enable-background:new 0 0 250 250;"
   xml:space="preserve"
   sodipodi:docname="logo.svg"
   inkscape:version="0.92.3 (unknown)"><metadata
   id="metadata904"><rdf:RDF><cc:Work
       rdf:about=""><dc:format>image/svg+xml</dc:format><dc:type
         rdf:resource="http://purl.org/dc/dcmitype/StillImage" /><dc:title></dc:title></cc:Work></rdf:RDF></metadata><defs
   id="defs902" /><sodipodi:namedview
   pagecolor="#ffffff"
   bordercolor="#666666"
   borderopacity="1"
   objecttolerance="10"
   gridtolerance="10"
   guidetolerance="10"
   inkscape:pageopacity="0"
   inkscape:pageshadow="2"
   inkscape:window-width="1920"
   inkscape:window-height="1031"
   id="namedview900"
   showgrid="false"
   inkscape:zoom="2.3985062"
   inkscape:cx="124.37461"
   inkscape:cy="113.20755"
   inkscape:window-x="0"
   inkscape:window-y="25"
   inkscape:window-maximized="1"
   inkscape:current-layer="g897" />
<style
   type="text/css"
   id="style889">
	.st0{fill:#DD0031;}
	.st1{fill:#C3002F;}
	.st2{fill:#FFFFFF;}
</style>
<g
   id="g897">
	<polygon
   class="st0"
   points="125,30 125,30 125,30 31.9,63.2 46.1,186.3 125,230 125,230 125,230 203.9,186.3 218.1,63.2  "
   id="polygon891" />
	<polygon
   class="st1"
   points="125,30 125,52.2 125,52.1 125,153.4 125,153.4 125,230 125,230 203.9,186.3 218.1,63.2 125,30  "
   id="polygon893" />
	
<path
   style="fill:#766450;fill-opacity:0.96932511;stroke:#000000;stroke-width:11.33858268;stroke-miterlimit:4;stroke-dasharray:none;stroke-opacity:0.73006137"
   d="M 125.08398 62.546875 L 117.39258 82.402344 A 45.861877 45.028027 0 0 0 95.132812 92.699219 L 75.494141 86.822266 L 85.511719 103.99609 A 45.861877 45.028027 0 0 0 79.138672 126.79883 A 45.861877 45.028027 0 0 0 79.248047 129.83594 L 63.554688 140.73047 L 82.425781 143.49023 A 45.861877 45.028027 0 0 0 99.550781 164.23047 L 98.257812 183.67578 L 112.72266 170.13477 A 45.861877 45.028027 0 0 0 125 171.82617 A 45.861877 45.028027 0 0 0 138.59766 169.75195 L 153.4707 183.32031 L 151.87305 163.2168 A 45.861877 45.028027 0 0 0 167.69922 143.10547 L 187.61719 139.93164 L 170.77148 128.55664 A 45.861877 45.028027 0 0 0 170.86133 126.79883 A 45.861877 45.028027 0 0 0 164.69531 104.35742 L 174.98438 86.181641 L 154.73047 92.529297 A 45.861877 45.028027 0 0 0 133.11914 82.521484 L 125.08398 62.546875 z "
   id="path920" /></g>
</svg>